<svg width="150" height="150" viewBox="0 0 39.687498 39.687501" xmlns="http://www.w3.org/2000/svg"><g fill="#fdfdfd"><path style="-inkscape-stroke:none" d="M19.842 0c-10.925 0-19.842 8.918-19.842 19.842 0 10.925 8.918 19.845 19.842 19.845 10.925 0 19.845-8.921 19.845-19.845 0-10.925-8.921-19.842-19.845-19.842zm0 5.727c7.83 0 14.118 6.286 14.118 14.115 0 2.855-.837 5.504-2.279 7.719-.341.024-.683.037-1.025.038-8.278 0-14.989-6.711-14.989-14.989.002-2.305.535-4.578 1.559-6.643.847-.157 1.721-.24 2.616-.24z" color="#000"/><path d="M18.48 13.953c1.795-.372 2.33-1.05 2.686-2.686.361 1.651.949 2.286 2.686 2.686-1.946.409-2.317 1.184-2.686 2.686-.322-1.44-.942-2.369-2.686-2.686z"/><path d="M23.169 19.002c2.599-.538 3.372-1.519 3.889-3.889.522 2.389 1.374 3.31 3.889 3.889-2.816.593-3.354 1.714-3.889 3.889-.467-2.084-1.364-3.43-3.889-3.889z"/></g></svg>