<svg width="150" height="150" viewBox="0 0 39.687498 39.687501" xmlns="http://www.w3.org/2000/svg"><g><path d="M19.816 31.297c-6.332 0-11.465-5.134-11.465-11.466 0-6.333 5.133-11.466 11.465-11.466z" fill="#fff"/><path style="-inkscape-stroke:none" d="M20.1 6.359c-7.377 0-13.398 6.022-13.398 13.4s6.021 13.402 13.398 13.402 13.4-6.024 13.4-13.402c0-7.378-6.023-13.4-13.4-13.4zm0 3.868c5.287 0 9.533 4.245 9.533 9.532s-4.246 9.534-9.533 9.534c-5.287 0-9.531-4.247-9.531-9.534 0-5.287 4.244-9.532 9.531-9.532z" color="#000" fill="#fffdfd"/><path d="M19.823 0l5.277 7.581h-10.554z" fill="#fff"/><path d="M19.823 39.687l5.277-7.581h-10.554z" fill="#fff"/><path d="M39.687 19.831l-7.58 5.278v-10.556z" fill="#fff"/><path d="M0 19.831l7.58 5.278v-10.556z" fill="#fff"/><path d="M33.914 33.905l-9.091-1.628 7.463-7.464z" fill="#fff"/><path d="M5.773 33.93l9.091-1.628-7.463-7.464z" fill="#fff"/><path d="M33.904 5.749l-1.628 9.092-7.463-7.464z" fill="#fff"/><path d="M5.751 5.837l1.628 9.092 7.463-7.464z" fill="#fff"/></g></svg>