<?xml version="1.0" encoding="UTF-8" standalone="no"?>
<svg
   width="1176"
   height="560"
   viewBox="0 0 311.14998 148.16667"
   shape-rendering="crispEdges"
   version="1.1"
   id="svg8"
   sodipodi:docname="logo.svg"
   inkscape:version="1.1 (c68e22c387, 2021-05-23)"
   xmlns:inkscape="http://www.inkscape.org/namespaces/inkscape"
   xmlns:sodipodi="http://sodipodi.sourceforge.net/DTD/sodipodi-0.dtd"
   xmlns="http://www.w3.org/2000/svg"
   xmlns:svg="http://www.w3.org/2000/svg">
  <defs
     id="defs12" />
  <sodipodi:namedview
     id="namedview10"
     pagecolor="#505050"
     bordercolor="#eeeeee"
     borderopacity="1"
     inkscape:pageshadow="0"
     inkscape:pageopacity="0"
     inkscape:pagecheckerboard="0"
     showgrid="false"
     inkscape:zoom="0.33040406"
     inkscape:cx="95.337811"
     inkscape:cy="325.3592"
     inkscape:window-width="1600"
     inkscape:window-height="837"
     inkscape:window-x="-8"
     inkscape:window-y="-8"
     inkscape:window-maximized="1"
     inkscape:current-layer="svg8" />
  <g
     fill="#ffffff"
     id="g6"
     transform="matrix(1.9999801,0,0,1.999982,0.00199996,0)">
    <path
       d="M 0,0 H 74.083 V 74.083 H 52.916 V 37.041 H 47.624 V 74.083 H 26.457 l -0.003,-37.25 -5.289,0.209 V 74.084 H -0.002 Z"
       id="path2" />
    <path
       d="m 92.354,10.849 a 37.086,37.042 0 0 0 0,52.385 37.086,37.042 0 0 0 52.447,0 c 0.95,-0.949 1.83,-1.969 2.642,-3.046 a 37.086,37.042 0 0 0 0,-46.292 c -0.813,-1.077 -1.692,-2.097 -2.642,-3.046 a 37.086,37.042 0 0 0 -52.447,0 z m 13.112,13.096 a 18.543,18.521 0 0 1 26.224,0 l -13.112,13.096 13.112,13.096 a 18.543,18.521 0 0 1 -26.224,0 18.543,18.521 0 0 1 0,-26.192 z"
       id="path4" />
  </g>
</svg>
