<svg width="150" height="150" viewBox="0 0 39.687498 39.687501" xmlns="http://www.w3.org/2000/svg"><path style="-inkscape-stroke:none" d="M19.842 0c-10.925 0-19.842 8.918-19.842 19.842 0 10.925 8.918 19.845 19.842 19.845 10.925 0 19.845-8.921 19.845-19.845 0-10.925-8.921-19.842-19.845-19.842zm0 5.727c7.83 0 14.118 6.286 14.118 14.115 0 2.855-.837 5.504-2.279 7.719-.341.024-.683.037-1.025.038-8.278 0-14.989-6.711-14.989-14.989.002-2.305.535-4.578 1.559-6.643.847-.157 1.721-.24 2.616-.24zm1.324 5.54c-.356 1.636-.891 2.314-2.686 2.686 1.744.317 2.364 1.246 2.686 2.686.369-1.502.74-2.277 2.686-2.686-1.737-.4-2.325-1.035-2.686-2.686zm5.892 3.846c-.517 2.37-1.29 3.351-3.889 3.889 2.525.459 3.422 1.805 3.889 3.889.535-2.175 1.073-3.296 3.889-3.889-2.515-.579-3.367-1.5-3.889-3.889z" fill="#fdfdfd"/></svg>