<svg width="24" height="24" viewBox="0 0 24 24" xmlns="http://www.w3.org/2000/svg"><path d="M12 0c-6.627 0-12 5.373-12 12s5.373 12 12 12 12-5.373 12-12-5.373-12-12-12zm9.567 9.098c-1.125.017-2.045.119-2.91-.339-.312.112.479.974.694 1.087.203-.154.86-.469 1.002-.039.271.812-.745 1.702-1.264 2.171-1.21-.555-2.276-2.616-2.744-2.663 0 .298.485.772.646 1.011.394 1.011 1.024 1.599 1.801 2.247 2.315-1.299-.31 2.395-.817 3.182-.171.321.139 1.112.114 1.49-1.19 1.784-2.539 3.159-4.174 3.119-.59-1.206-1.004-2.278-.745-3.503-.836-1.5-1.182-2.773-2.772-2.312-1.753.087-2.882-1.675-2.463-3.141-.177-.767.271-1.174.72-1.717 1.227-1.139 2.488-1.457 4.131-1.472.054 1.15 1.137.928 2.03.736 1.34.305 1.798.252 1.749-.961-1.072.199-2.036-.149-2.953.015-.62-1.498-1.696-.955-2.508-.087-.638.451-.827.112-1.233-.021.038-.167.215-.687.169-.877 1.304-.085 1.337-.338.842-.769.557-.175 1.1-.556 1.538-.811 1.55-.359 1.331-.164 1.508-1.656-.399-.402-.424.774-.493 1.039-.563.475-.935-.315-1.184-.564 1.805-1.77 1.742-1.173 2.381-.719.272.704.796-.396 1.241-.764 2.72 1.148 4.827 3.465 5.694 6.318zm-9.241-7.081c-1.158 1.152-2.939 1.158-3.975 1.704-.067.003.002-.641.36-.689 1.143-.859 2.367-.972 3.615-1.015zm-5.086 1.19c.07.082.278.092-.026.288-.611 1.164-1.467.922-2.301 1.458.685-.688 1.468-1.279 2.327-1.746zm-5.24 8.793c0-.541.055-1.068.139-1.586.45.232.397.641.461 1.096.705 1.925 2.397 2.999 2.4 4.994.151 1.066-.064 1.336-.482 2.107-1.562-1.765-2.518-4.076-2.518-6.611z"/></svg>