<svg width="1176" height="560" viewBox="0 0 311.14998 148.16667" shape-rendering="crispEdges" xmlns="http://www.w3.org/2000/svg"><g fill="#fff"><path d="M.002 0h148.165v148.165h-42.334v-74.083h-10.584v74.083h-42.334l-.006-74.499-10.578.418v74.083h-42.334z"/><path d="M92.354 10.849a37.086 37.042 0 0 0 0 52.385 37.086 37.042 0 0 0 52.447 0c.95-.949 1.83-1.969 2.642-3.046a37.086 37.042 0 0 0 0-46.292c-.813-1.077-1.692-2.097-2.642-3.046a37.086 37.042 0 0 0-52.447 0zm13.112 13.096a18.543 18.521 0 0 1 26.224 0l-13.112 13.096 13.112 13.096a18.543 18.521 0 0 1-26.224 0 18.543 18.521 0 0 1 0-26.192z" transform="matrix(2 0 0 2 .002 0)"/></g></svg>